<?xml version="1.0" encoding="UTF-8" standalone="no"?>
<!DOCTYPE svg PUBLIC "-//W3C//DTD SVG 1.1//EN"
 "http://www.w3.org/Graphics/SVG/1.1/DTD/svg11.dtd">
<!-- Generated by graphviz version 2.49.3 (20211023.0002)
 -->
<!-- Title: G Pages: 1 -->
<svg width="427pt" height="481pt"
 viewBox="0.00 0.00 427.08 481.50" xmlns="http://www.w3.org/2000/svg" xmlns:xlink="http://www.w3.org/1999/xlink">
<g id="graph0" class="graph" transform="scale(1 1) rotate(0) translate(4 477.5)">
<title>G</title>
<polygon fill="white" stroke="transparent" points="-4,4 -4,-477.5 423.08,-477.5 423.08,4 -4,4"/>
<!-- n0 -->
<g id="node1" class="node">
<title>n0</title>
<ellipse fill="none" stroke="black" cx="25.35" cy="-281.5" rx="25.2" ry="25.2"/>
<text text-anchor="middle" x="25.35" y="-277.8" font-family="Times New Roman,serif" font-size="14.00">x[2]</text>
</g>
<!-- n1 -->
<g id="node2" class="node">
<title>n1</title>
<ellipse fill="none" stroke="black" cx="149.04" cy="-342.5" rx="25.2" ry="25.2"/>
<text text-anchor="middle" x="149.04" y="-338.8" font-family="Times New Roman,serif" font-size="14.00">x[3]</text>
</g>
<!-- n0&#45;&gt;n1 -->
<g id="edge6" class="edge">
<title>n0&#45;&gt;n1</title>
<path fill="none" stroke="black" d="M48.39,-292.54C67.6,-302.18 95.67,-316.25 117.13,-327"/>
<polygon fill="black" stroke="black" points="115.66,-330.18 126.17,-331.53 118.8,-323.92 115.66,-330.18"/>
<text text-anchor="middle" x="87.2" y="-324.3" font-family="Times New Roman,serif" font-size="14.00">&#39;CSV&#39;</text>
</g>
<!-- 4 -->
<g id="node8" class="node">
<title>4</title>
<ellipse fill="#f0f0f0" stroke="black" cx="149.04" cy="-281.5" rx="18" ry="18"/>
<text text-anchor="middle" x="149.04" y="-277.8" font-family="Times New Roman,serif" font-size="14.00">4</text>
</g>
<!-- n0&#45;&gt;4 -->
<g id="edge7" class="edge">
<title>n0&#45;&gt;4</title>
<path fill="none" stroke="black" d="M50.97,-281.5C71.2,-281.5 99.82,-281.5 120.75,-281.5"/>
<polygon fill="black" stroke="black" points="120.9,-285 130.9,-281.5 120.9,-278 120.9,-285"/>
<text text-anchor="middle" x="87.2" y="-285.3" font-family="Times New Roman,serif" font-size="14.00">&#39;NCL&#39;</text>
</g>
<!-- n8 -->
<g id="node9" class="node">
<title>n8</title>
<ellipse fill="none" stroke="black" cx="149.04" cy="-220.5" rx="25.2" ry="25.2"/>
<text text-anchor="middle" x="149.04" y="-216.8" font-family="Times New Roman,serif" font-size="14.00">x[3]</text>
</g>
<!-- n0&#45;&gt;n8 -->
<g id="edge16" class="edge">
<title>n0&#45;&gt;n8</title>
<path fill="none" stroke="black" d="M48.39,-270.45C67.6,-260.82 95.67,-246.75 117.13,-235.99"/>
<polygon fill="black" stroke="black" points="118.8,-239.07 126.17,-231.46 115.66,-232.81 118.8,-239.07"/>
<text text-anchor="middle" x="87.2" y="-263.3" font-family="Times New Roman,serif" font-size="14.00">&#39;OOC&#39;</text>
</g>
<!-- n2 -->
<g id="node3" class="node">
<title>n2</title>
<ellipse fill="none" stroke="black" cx="263.74" cy="-401.5" rx="25.2" ry="25.2"/>
<text text-anchor="middle" x="263.74" y="-397.8" font-family="Times New Roman,serif" font-size="14.00">x[0]</text>
</g>
<!-- n1&#45;&gt;n2 -->
<g id="edge4" class="edge">
<title>n1&#45;&gt;n2</title>
<path fill="none" stroke="black" d="M171.77,-353.87C188.81,-362.79 212.75,-375.33 231.79,-385.3"/>
<polygon fill="black" stroke="black" points="230.21,-388.42 240.69,-389.96 233.46,-382.22 230.21,-388.42"/>
<text text-anchor="middle" x="206.39" y="-382.3" font-family="Times New Roman,serif" font-size="14.00">1983</text>
</g>
<!-- 3 -->
<g id="node7" class="node">
<title>3</title>
<ellipse fill="#f0f0f0" stroke="black" cx="263.74" cy="-340.5" rx="18" ry="18"/>
<text text-anchor="middle" x="263.74" y="-336.8" font-family="Times New Roman,serif" font-size="14.00">3</text>
</g>
<!-- n1&#45;&gt;3 -->
<g id="edge5" class="edge">
<title>n1&#45;&gt;3</title>
<path fill="none" stroke="black" d="M174.5,-342.06C192.46,-341.75 216.88,-341.31 235.47,-340.98"/>
<polygon fill="black" stroke="black" points="235.72,-344.48 245.66,-340.8 235.6,-337.48 235.72,-344.48"/>
<text text-anchor="middle" x="206.39" y="-345.3" font-family="Times New Roman,serif" font-size="14.00">2016</text>
</g>
<!-- 0 -->
<g id="node4" class="node">
<title>0</title>
<ellipse fill="#f0f0f0" stroke="black" cx="399.58" cy="-455.5" rx="18" ry="18"/>
<text text-anchor="middle" x="399.58" y="-451.8" font-family="Times New Roman,serif" font-size="14.00">0</text>
</g>
<!-- n2&#45;&gt;0 -->
<g id="edge1" class="edge">
<title>n2&#45;&gt;0</title>
<path fill="none" stroke="black" d="M287.05,-411.79C293.49,-414.68 300.54,-417.78 307.09,-420.5 329.09,-429.63 354.4,-439.25 372.82,-446.09"/>
<polygon fill="black" stroke="black" points="371.68,-449.4 382.28,-449.58 374.11,-442.83 371.68,-449.4"/>
<text text-anchor="middle" x="334.59" y="-445.3" font-family="Times New Roman,serif" font-size="14.00">&#39;SLIM&#39;</text>
</g>
<!-- 1 -->
<g id="node5" class="node">
<title>1</title>
<ellipse fill="#f0f0f0" stroke="black" cx="399.58" cy="-401.5" rx="18" ry="18"/>
<text text-anchor="middle" x="399.58" y="-397.8" font-family="Times New Roman,serif" font-size="14.00">1</text>
</g>
<!-- n2&#45;&gt;1 -->
<g id="edge2" class="edge">
<title>n2&#45;&gt;1</title>
<path fill="none" stroke="black" d="M289.29,-401.5C312.46,-401.5 347.13,-401.5 371.19,-401.5"/>
<polygon fill="black" stroke="black" points="371.42,-405 381.42,-401.5 371.42,-398 371.42,-405"/>
<text text-anchor="middle" x="334.59" y="-405.3" font-family="Times New Roman,serif" font-size="14.00">&#39;AMPL&#39;</text>
</g>
<!-- 2 -->
<g id="node6" class="node">
<title>2</title>
<ellipse fill="#f0f0f0" stroke="black" cx="399.58" cy="-347.5" rx="18" ry="18"/>
<text text-anchor="middle" x="399.58" y="-343.8" font-family="Times New Roman,serif" font-size="14.00">2</text>
</g>
<!-- n2&#45;&gt;2 -->
<g id="edge3" class="edge">
<title>n2&#45;&gt;2</title>
<path fill="none" stroke="black" d="M287.05,-391.2C293.49,-388.31 300.54,-385.22 307.09,-382.5 329.09,-373.36 354.4,-363.75 372.82,-356.91"/>
<polygon fill="black" stroke="black" points="374.11,-360.17 382.28,-353.42 371.68,-353.6 374.11,-360.17"/>
<text text-anchor="middle" x="334.59" y="-386.3" font-family="Times New Roman,serif" font-size="14.00">&#39;TEA&#39;</text>
</g>
<!-- n9 -->
<g id="node10" class="node">
<title>n9</title>
<ellipse fill="none" stroke="black" cx="263.74" cy="-235.5" rx="25.2" ry="25.2"/>
<text text-anchor="middle" x="263.74" y="-231.8" font-family="Times New Roman,serif" font-size="14.00">x[0]</text>
</g>
<!-- n8&#45;&gt;n9 -->
<g id="edge11" class="edge">
<title>n8&#45;&gt;n9</title>
<path fill="none" stroke="black" d="M174.22,-223.72C189.86,-225.8 210.47,-228.54 227.87,-230.86"/>
<polygon fill="black" stroke="black" points="227.84,-234.38 238.21,-232.23 228.76,-227.45 227.84,-234.38"/>
<text text-anchor="middle" x="206.39" y="-233.3" font-family="Times New Roman,serif" font-size="14.00">1983</text>
</g>
<!-- n13 -->
<g id="node14" class="node">
<title>n13</title>
<ellipse fill="none" stroke="black" cx="263.74" cy="-101.5" rx="25.2" ry="25.2"/>
<text text-anchor="middle" x="263.74" y="-97.8" font-family="Times New Roman,serif" font-size="14.00">x[1]</text>
</g>
<!-- n8&#45;&gt;n13 -->
<g id="edge15" class="edge">
<title>n8&#45;&gt;n13</title>
<path fill="none" stroke="black" d="M167.16,-202.42C186.19,-182.33 217.07,-149.72 238.56,-127.03"/>
<polygon fill="black" stroke="black" points="241.13,-129.41 245.46,-119.74 236.04,-124.6 241.13,-129.41"/>
<text text-anchor="middle" x="206.39" y="-178.3" font-family="Times New Roman,serif" font-size="14.00">2016</text>
</g>
<!-- 5 -->
<g id="node11" class="node">
<title>5</title>
<ellipse fill="#f0f0f0" stroke="black" cx="399.58" cy="-290.5" rx="18" ry="18"/>
<text text-anchor="middle" x="399.58" y="-286.8" font-family="Times New Roman,serif" font-size="14.00">5</text>
</g>
<!-- n9&#45;&gt;5 -->
<g id="edge8" class="edge">
<title>n9&#45;&gt;5</title>
<path fill="none" stroke="black" d="M287.07,-245.75C293.5,-248.64 300.55,-251.75 307.09,-254.5 329.12,-263.77 354.44,-273.67 372.84,-280.74"/>
<polygon fill="black" stroke="black" points="371.7,-284.05 382.29,-284.35 374.2,-277.51 371.7,-284.05"/>
<text text-anchor="middle" x="334.59" y="-279.3" font-family="Times New Roman,serif" font-size="14.00">&#39;SLIM&#39;</text>
</g>
<!-- 6 -->
<g id="node12" class="node">
<title>6</title>
<ellipse fill="#f0f0f0" stroke="black" cx="399.58" cy="-236.5" rx="18" ry="18"/>
<text text-anchor="middle" x="399.58" y="-232.8" font-family="Times New Roman,serif" font-size="14.00">6</text>
</g>
<!-- n9&#45;&gt;6 -->
<g id="edge9" class="edge">
<title>n9&#45;&gt;6</title>
<path fill="none" stroke="black" d="M289.29,-235.68C312.46,-235.85 347.13,-236.11 371.19,-236.29"/>
<polygon fill="black" stroke="black" points="371.39,-239.8 381.42,-236.37 371.44,-232.8 371.39,-239.8"/>
<text text-anchor="middle" x="334.59" y="-239.3" font-family="Times New Roman,serif" font-size="14.00">&#39;AMPL&#39;</text>
</g>
<!-- 7 -->
<g id="node13" class="node">
<title>7</title>
<ellipse fill="#f0f0f0" stroke="black" cx="399.58" cy="-182.5" rx="18" ry="18"/>
<text text-anchor="middle" x="399.58" y="-178.8" font-family="Times New Roman,serif" font-size="14.00">7</text>
</g>
<!-- n9&#45;&gt;7 -->
<g id="edge10" class="edge">
<title>n9&#45;&gt;7</title>
<path fill="none" stroke="black" d="M287.04,-225.16C293.47,-222.27 300.52,-219.19 307.09,-216.5 329.05,-207.5 354.37,-198.17 372.8,-191.57"/>
<polygon fill="black" stroke="black" points="374.02,-194.85 382.26,-188.2 371.67,-188.25 374.02,-194.85"/>
<text text-anchor="middle" x="334.59" y="-220.3" font-family="Times New Roman,serif" font-size="14.00">&#39;TEA&#39;</text>
</g>
<!-- 8 -->
<g id="node15" class="node">
<title>8</title>
<ellipse fill="#f0f0f0" stroke="black" cx="399.58" cy="-128.5" rx="18" ry="18"/>
<text text-anchor="middle" x="399.58" y="-124.8" font-family="Times New Roman,serif" font-size="14.00">8</text>
</g>
<!-- n13&#45;&gt;8 -->
<g id="edge12" class="edge">
<title>n13&#45;&gt;8</title>
<path fill="none" stroke="black" d="M288.67,-106.33C311.99,-111.03 347.38,-118.17 371.67,-123.07"/>
<polygon fill="black" stroke="black" points="371.15,-126.53 381.65,-125.08 372.54,-119.67 371.15,-126.53"/>
<text text-anchor="middle" x="334.59" y="-124.3" font-family="Times New Roman,serif" font-size="14.00">&#39;MESON&#39;</text>
</g>
<!-- 9 -->
<g id="node16" class="node">
<title>9</title>
<ellipse fill="#f0f0f0" stroke="black" cx="399.58" cy="-74.5" rx="18" ry="18"/>
<text text-anchor="middle" x="399.58" y="-70.8" font-family="Times New Roman,serif" font-size="14.00">9</text>
</g>
<!-- n13&#45;&gt;9 -->
<g id="edge13" class="edge">
<title>n13&#45;&gt;9</title>
<path fill="none" stroke="black" d="M288.4,-94.99C294.47,-93.42 301,-91.82 307.09,-90.5 328.69,-85.81 353.4,-81.56 371.69,-78.61"/>
<polygon fill="black" stroke="black" points="372.31,-82.06 381.64,-77.04 371.22,-75.14 372.31,-82.06"/>
<text text-anchor="middle" x="334.59" y="-94.3" font-family="Times New Roman,serif" font-size="14.00">&#39;GO&#39;</text>
</g>
<!-- 10 -->
<g id="node17" class="node">
<title>10</title>
<ellipse fill="#f0f0f0" stroke="black" cx="399.58" cy="-19.5" rx="19.5" ry="19.5"/>
<text text-anchor="middle" x="399.58" y="-15.8" font-family="Times New Roman,serif" font-size="14.00">10</text>
</g>
<!-- n13&#45;&gt;10 -->
<g id="edge14" class="edge">
<title>n13&#45;&gt;10</title>
<path fill="none" stroke="black" d="M281.25,-82.86C288.64,-75.27 297.77,-66.81 307.09,-60.5 327.12,-46.93 352.38,-36.01 371.28,-28.86"/>
<polygon fill="black" stroke="black" points="372.6,-32.1 380.79,-25.38 370.19,-25.53 372.6,-32.1"/>
<text text-anchor="middle" x="334.59" y="-64.3" font-family="Times New Roman,serif" font-size="14.00">&#39;HY&#39;</text>
</g>
</g>
</svg>
